<svg width="17" height="16" viewBox="0 0 17 16" fill="none" xmlns="http://www.w3.org/2000/svg">
<path d="M11.4996 11.5005C11.8309 11.5005 12.0991 11.7688 12.0992 12.1001C12.0992 12.4315 11.831 12.6997 11.4996 12.6997H4.70081L4.58069 12.688C4.30712 12.6322 4.1012 12.3902 4.1012 12.1001C4.10131 11.8101 4.30715 11.568 4.58069 11.5122L4.70081 11.5005H11.4996ZM13.4996 7.50049C13.8309 7.50049 14.0991 7.76884 14.0992 8.1001C14.0992 8.43147 13.831 8.69971 13.4996 8.69971H2.70081L2.58069 8.68799C2.30712 8.63216 2.1012 8.39016 2.1012 8.1001C2.10131 7.81011 2.30715 7.56798 2.58069 7.51221L2.70081 7.50049L13.4996 7.50049ZM14.4996 3.50049C14.8309 3.50049 15.0991 3.76884 15.0992 4.1001C15.0992 4.43147 14.831 4.69971 14.4996 4.69971L1.70081 4.69971L1.58069 4.68799C1.30712 4.63216 1.1012 4.39016 1.1012 4.1001C1.10131 3.81011 1.30715 3.56798 1.58069 3.51221L1.70081 3.50049L14.4996 3.50049Z" fill="black"/>
<path d="M11.4996 11.5005C11.8309 11.5005 12.0991 11.7688 12.0992 12.1001C12.0992 12.4315 11.831 12.6997 11.4996 12.6997H4.70081L4.58069 12.688C4.30712 12.6322 4.1012 12.3902 4.1012 12.1001C4.10131 11.8101 4.30715 11.568 4.58069 11.5122L4.70081 11.5005H11.4996ZM13.4996 7.50049C13.8309 7.50049 14.0991 7.76884 14.0992 8.1001C14.0992 8.43147 13.831 8.69971 13.4996 8.69971H2.70081L2.58069 8.68799C2.30712 8.63216 2.1012 8.39016 2.1012 8.1001C2.10131 7.81011 2.30715 7.56798 2.58069 7.51221L2.70081 7.50049L13.4996 7.50049ZM14.4996 3.50049C14.8309 3.50049 15.0991 3.76884 15.0992 4.1001C15.0992 4.43147 14.831 4.69971 14.4996 4.69971L1.70081 4.69971L1.58069 4.68799C1.30712 4.63216 1.1012 4.39016 1.1012 4.1001C1.10131 3.81011 1.30715 3.56798 1.58069 3.51221L1.70081 3.50049L14.4996 3.50049Z" fill="white"/>
</svg>
