<svg width="16" height="16" viewBox="0 0 16 16" fill="none" xmlns="http://www.w3.org/2000/svg">
<g clip-path="url(#clip0_9_181)">
<path d="M2.01465 6C2.98925 6 3.77927 6.79005 3.7793 7.76465C3.7793 8.73927 2.98927 9.5293 2.01465 9.5293C1.04007 9.52925 0.25 8.73924 0.25 7.76465C0.250031 6.79008 1.04009 6.00005 2.01465 6ZM8.01465 6C8.98925 6 9.77927 6.79005 9.7793 7.76465C9.7793 8.73927 8.98927 9.5293 8.01465 9.5293C7.04006 9.52926 6.25 8.73925 6.25 7.76465C6.25003 6.79008 7.04008 6.00004 8.01465 6ZM14.0146 6C14.9892 6 15.7793 6.79005 15.7793 7.76465C15.7793 8.73927 14.9893 9.5293 14.0146 9.5293C13.0401 9.52927 12.25 8.73925 12.25 7.76465C12.25 6.79007 13.0401 6.00003 14.0146 6Z" fill="white"/>
</g>
<defs>
<clipPath id="clip0_9_181">
<rect width="16" height="16" fill="white"/>
</clipPath>
</defs>
</svg>
