<svg width="17" height="16" viewBox="0 0 17 16" fill="none" xmlns="http://www.w3.org/2000/svg">
<g clip-path="url(#clip0_13_224)">
<path d="M8.1012 1.10107C8.43245 1.10107 8.70061 1.36948 8.70081 1.70068V7.50049L14.4996 7.50049C14.8309 7.50049 15.0991 7.76884 15.0992 8.1001C15.0992 8.43147 14.831 8.69971 14.4996 8.69971H8.70081L8.70081 14.4995L8.68909 14.6196C8.63332 14.8933 8.39132 15.0991 8.1012 15.0991C7.81113 15.0991 7.56906 14.8932 7.51331 14.6196L7.50159 14.4995L7.50159 8.69971H1.70081L1.58069 8.68799C1.3071 8.63218 1.1012 8.39018 1.1012 8.1001C1.10131 7.81009 1.30713 7.56796 1.58069 7.51221L1.70081 7.50049H7.50159V1.70068C7.50178 1.36952 7.77 1.10114 8.1012 1.10107Z" fill="black"/>
<path d="M8.1012 1.10107C8.43245 1.10107 8.70061 1.36948 8.70081 1.70068V7.50049L14.4996 7.50049C14.8309 7.50049 15.0991 7.76884 15.0992 8.1001C15.0992 8.43147 14.831 8.69971 14.4996 8.69971H8.70081L8.70081 14.4995L8.68909 14.6196C8.63332 14.8933 8.39132 15.0991 8.1012 15.0991C7.81113 15.0991 7.56906 14.8932 7.51331 14.6196L7.50159 14.4995L7.50159 8.69971H1.70081L1.58069 8.68799C1.3071 8.63218 1.1012 8.39018 1.1012 8.1001C1.10131 7.81009 1.30713 7.56796 1.58069 7.51221L1.70081 7.50049H7.50159V1.70068C7.50178 1.36952 7.77 1.10114 8.1012 1.10107Z" fill="white"/>
</g>
<defs>
<clipPath id="clip0_13_224">
<rect width="16" height="16" fill="white" transform="translate(0.5)"/>
</clipPath>
</defs>
</svg>
