<svg width="16" height="16" viewBox="0 0 16 16" fill="none" xmlns="http://www.w3.org/2000/svg">
<g clip-path="url(#clip0_13_249)">
<path d="M14.8284 14.1772C15.0625 14.4115 15.0627 14.7916 14.8284 15.0258C14.5942 15.2596 14.214 15.2597 13.9798 15.0258L14.8284 14.1772ZM7.56476 1.17715C11.2011 1.17715 14.1485 4.12487 14.1487 7.76114C14.1487 9.36375 13.576 10.8324 12.6243 11.974L14.8284 14.1772L14.4036 14.601L13.9798 15.0258L11.7767 12.8217C10.6351 13.7728 9.16687 14.3451 7.56476 14.3451C3.92849 14.3449 0.980774 11.3975 0.980774 7.76114C0.980991 4.125 3.92862 1.17737 7.56476 1.17715ZM7.56476 2.37637C4.59136 2.37659 2.18021 4.78774 2.17999 7.76114C2.17999 10.7347 4.59123 13.1457 7.56476 13.1459C10.5385 13.1459 12.9495 10.7349 12.9495 7.76114C12.9493 4.78761 10.5383 2.37637 7.56476 2.37637Z" fill="black"/>
<path d="M14.8284 14.1772C15.0625 14.4115 15.0627 14.7916 14.8284 15.0258C14.5942 15.2596 14.214 15.2597 13.9798 15.0258L14.8284 14.1772ZM7.56476 1.17715C11.2011 1.17715 14.1485 4.12487 14.1487 7.76114C14.1487 9.36375 13.576 10.8324 12.6243 11.974L14.8284 14.1772L14.4036 14.601L13.9798 15.0258L11.7767 12.8217C10.6351 13.7728 9.16687 14.3451 7.56476 14.3451C3.92849 14.3449 0.980774 11.3975 0.980774 7.76114C0.980991 4.125 3.92862 1.17737 7.56476 1.17715ZM7.56476 2.37637C4.59136 2.37659 2.18021 4.78774 2.17999 7.76114C2.17999 10.7347 4.59123 13.1457 7.56476 13.1459C10.5385 13.1459 12.9495 10.7349 12.9495 7.76114C12.9493 4.78761 10.5383 2.37637 7.56476 2.37637Z" fill="white"/>
</g>
<defs>
<clipPath id="clip0_13_249">
<rect width="16" height="16" fill="white"/>
</clipPath>
</defs>
</svg>
